# xmcd
# 
# Track frame offsets:
#     150
#     16192
#     33343
#     52283
#     66517
#     85920
#     104549
#     123850
#     140713
#     154515
#     164628
#     184118
# 
# Disc length: 2814
# 
# Revision: 1
# Processed by: cddbd v1.5.2PL0 Copyright (c) Steve Scherf et al.
# Submitted via: BonkEnc v1.0.8
# 
DISCID=a80afc0c
DTITLE=Marina Lima - Lá Nos Primórdios
DYEAR=2006
DGENRE=MPB
TTITLE0=Três
TTITLE1=Valeu
TTITLE2=Anna Bella
TTITLE3=Difícil
TTITLE4=Entre As Coisas
TTITLE5=Vestidinho Vermelho
TTITLE6=Meus Irmãos
TTITLE7=Que Ainda Virão
TTITLE8=$ Cara
TTITLE9=Dura Na Queda
TTITLE10=Valeu [Remix - DJ Dolores]
TTITLE11=Vestidinho Vermelho [Remix - Zé Pedro]
EXTD=
EXTT0=
EXTT1=
EXTT2=
EXTT3=
EXTT4=
EXTT5=
EXTT6=
EXTT7=
EXTT8=
EXTT9=
EXTT10=
EXTT11=
PLAYORDER=
